<?xml version="1.0" standalone="no"?><!DOCTYPE svg PUBLIC "-//W3C//DTD SVG 1.1//EN" "http://www.w3.org/Graphics/SVG/1.1/DTD/svg11.dtd"><svg t="1607582306078" class="icon" viewBox="0 0 1024 1024" version="1.1" xmlns="http://www.w3.org/2000/svg" p-id="8841" width="32" height="32" xmlns:xlink="http://www.w3.org/1999/xlink"><defs><style type="text/css"></style></defs><path d="M318.464 481.792H358.4V371.2h-39.936v110.592zM318.464 542.72H358.4v110.592h-39.936V542.72z" fill="#FFA500" p-id="8842"></path><path d="M929.792 412.16c2.048-1.024 26.112-11.264 27.136-11.776h4.096V245.76c0-39.936-32.256-72.192-72.192-72.192H137.216c-39.424 0-72.192 32.256-72.192 72.192v153.088l3.072 1.024c29.696 7.68 56.32 26.624 71.168 49.664 15.36 24.064 22.528 45.056 21.504 65.536-1.024 19.968-8.192 41.472-22.528 62.976-14.336 22.016-39.424 38.912-70.656 46.592l-3.072 1.024v153.6c0 39.936 32.256 72.192 72.192 72.192h751.616c39.424 0 72.192-32.256 72.192-72.192V624.64l-3.072-1.024c-38.912-10.752-69.632-41.984-82.432-82.944-11.776-37.376-1.536-75.776 29.184-108.544 7.68-7.68 16.384-14.336 25.6-19.968zM821.248 512c0 58.368 35.328 113.152 97.28 151.552l2.048 1.024v114.688c0 16.896-13.824 30.208-30.208 30.208H357.376v-71.168h-38.912v71.168H135.68c-16.896 0-30.208-13.824-30.208-30.208v-108.032l2.048-1.024c47.104-28.16 97.28-84.992 97.28-158.208 0-73.216-50.176-130.048-97.28-158.208l-2.048-1.024v-107.52c0-16.896 13.824-30.208 30.208-30.208h182.784v71.68h40.448V215.04h531.456c16.896 0 30.208 13.824 30.208 30.208v114.176l-2.048 1.024c-61.44 37.888-97.28 93.184-97.28 151.552z" fill="#FFA500" p-id="8843"></path><path d="M661.504 366.592l-51.712 77.312c-1.024 1.536-3.072 5.12-6.144 9.728h-12.8c-2.048-3.584-4.096-6.656-5.632-8.704l-53.76-78.848H478.72l61.44 87.04H482.816v44.032h91.136v36.864H482.816v44.032h91.136v88.576h42.496v-88.576h97.28v-44.032h-97.28v-36.864h97.28v-44.032h-59.392l63.488-87.04h-56.32z" fill="#FFA500" p-id="8844"></path></svg>