<?xml version="1.0" standalone="no"?><!DOCTYPE svg PUBLIC "-//W3C//DTD SVG 1.1//EN" "http://www.w3.org/Graphics/SVG/1.1/DTD/svg11.dtd"><svg t="1607573548746" class="icon" viewBox="0 0 1024 1024" version="1.1" xmlns="http://www.w3.org/2000/svg" p-id="3176" xmlns:xlink="http://www.w3.org/1999/xlink" width="32" height="32"><defs><style type="text/css"></style></defs><path d="M832 785.664a25.216 25.216 0 0 0-19.8656-24.8064 97.28 97.28 0 0 1 0-190.5152 25.216 25.216 0 0 0 19.8656-24.832V376.32a77.0304 77.0304 0 0 0-76.8-76.8H38.4v92.3904a25.216 25.216 0 0 0 19.8656 24.832 97.28 97.28 0 0 1 0 190.5152A25.216 25.216 0 0 0 38.4 632.064V801.28a77.0304 77.0304 0 0 0 76.8 76.8h716.8z" fill="#EE7C3D" p-id="3177"></path><path d="M903.68 227.84v124.8a179.2 179.2 0 0 0 0 318.72V796.16H120.32v-124.8a179.2 179.2 0 0 0 0-318.72V227.84h783.36m5.12-81.92H115.2a77.0304 77.0304 0 0 0-76.8 76.8v169.216a25.216 25.216 0 0 0 19.8656 24.8064 97.28 97.28 0 0 1 0 190.5152 25.216 25.216 0 0 0-19.8656 24.832V801.28a77.0304 77.0304 0 0 0 76.8 76.8h793.6a77.0304 77.0304 0 0 0 76.8-76.8v-169.1904a25.216 25.216 0 0 0-19.8656-24.832 97.28 97.28 0 0 1 0-190.5152 25.216 25.216 0 0 0 19.8656-24.8064V222.72a77.0304 77.0304 0 0 0-76.8-76.8z" fill="#333333" p-id="3178"></path><path d="M628.8384 501.5552a40.96 40.96 0 0 0 0-81.92h-51.9424L657.92 338.7136a40.96 40.96 0 0 0-57.9072-57.9072L512 368.64l-87.8848-87.8592a40.96 40.96 0 0 0-57.9072 57.9072l80.896 80.9216h-51.9424a40.96 40.96 0 0 0 0 81.92H471.04v39.1424h-75.8784a40.96 40.96 0 0 0 0 81.92H471.04V709.12a40.96 40.96 0 0 0 81.92 0v-86.5024h75.8784a40.96 40.96 0 0 0 0-81.92H552.96v-39.1424z" fill="#333333" p-id="3179"></path></svg>