<?xml version="1.0" standalone="no"?><!DOCTYPE svg PUBLIC "-//W3C//DTD SVG 1.1//EN" "http://www.w3.org/Graphics/SVG/1.1/DTD/svg11.dtd"><svg t="1607582212889" class="icon" viewBox="0 0 1024 1024" version="1.1" xmlns="http://www.w3.org/2000/svg" p-id="7679" xmlns:xlink="http://www.w3.org/1999/xlink" width="32" height="32"><defs><style type="text/css"></style></defs><path d="M512.614246 993.287678a915.483129 915.483129 0 0 1-297.551212-44.072182 310.962259 310.962259 0 0 1-96.129567-51.187203A106.52057 106.52057 0 0 1 76.857586 819.251187c0-60.912772 65.007748-112.048788 182.994251-143.938415a29.176706 29.176706 0 1 1 15.356161 56.305923c-96.743814 26.156661-140.048188 63.011447-140.048188 87.837241 0 19.195201 26.259035 49.088528 99.866233 75.347563a857.590402 857.590402 0 0 0 277.792952 40.949763 857.948713 857.948713 0 0 0 277.792952-40.949763c73.607198-26.310222 99.815046-56.305924 99.815046-75.347563 0-24.876981-43.304374-61.68058-139.997-87.837241a29.176706 29.176706 0 1 1 15.35616-56.305923c117.730567 31.940815 182.943064 83.025644 182.943065 143.938415a106.725319 106.725319 0 0 1-42.28063 78.725919 311.576506 311.576506 0 0 1-96.078381 51.187203 916.250937 916.250937 0 0 1-297.755961 44.123369z m0-145.371657a118.293627 118.293627 0 0 1-88.605048-41.564009 1679.964009 1679.964009 0 0 1-125.92052-157.810147C211.428743 525.180705 167.510122 423.062234 167.510122 344.899375a344.899375 344.899375 0 1 1 689.798751 0c0 78.162859-43.91862 180.28133-130.476181 303.591302a1700.131767 1700.131767 0 0 1-125.766958 157.554212 117.32107 117.32107 0 0 1-88.246739 42.127068z m4.453287-650.384604a138.205449 138.205449 0 1 0 137.949513 138.205449 138.205449 138.205449 0 0 0-137.949513-138.205449z" fill="#FF702B" p-id="7680"></path></svg>