<?xml version="1.0" standalone="no"?><!DOCTYPE svg PUBLIC "-//W3C//DTD SVG 1.1//EN" "http://www.w3.org/Graphics/SVG/1.1/DTD/svg11.dtd"><svg t="1608285594329" class="icon" viewBox="0 0 1024 1024" version="1.1" xmlns="http://www.w3.org/2000/svg" p-id="3169" width="16" height="16" xmlns:xlink="http://www.w3.org/1999/xlink"><defs><style type="text/css"></style></defs><path d="M336.312597 398.912454c0-95.652354 80.215663-172.126983 177.010018-172.126983s177.010018 76.474628 177.010018 172.087604c0 95.652354-80.215663 172.126983-177.010018 172.126983S336.312597 494.525429 336.312597 398.912454zM98.461538 404.30742c0 101.0867 33.196762 172.126983 74.66318 232.219817 38.749245 54.658488 121.682081 131.133117 174.253466 191.265329 52.571385 57.375661 143.813256 172.087604 163.187879 193.982503 2.756552 2.756552 2.756552 2.756552 5.513104 0 19.374623-24.572692 141.056704-166.653258 154.878843-185.791605 16.618071-19.138347 127.234565-131.133117 174.253466-191.225951C892.230377 584.66468 925.427139 497.242602 925.427139 401.629627 925.427139 180.31788 740.108086 0 513.322615 0 283.741212 0 98.461538 180.35726 98.461538 404.346799z" fill="#FFA500" p-id="3170"></path></svg>