<?xml version="1.0" standalone="no"?><!DOCTYPE svg PUBLIC "-//W3C//DTD SVG 1.1//EN" "http://www.w3.org/Graphics/SVG/1.1/DTD/svg11.dtd"><svg t="1607573465100" class="icon" viewBox="0 0 1024 1024" version="1.1" xmlns="http://www.w3.org/2000/svg" p-id="3028" xmlns:xlink="http://www.w3.org/1999/xlink" width="32" height="32"><defs><style type="text/css"></style></defs><path d="M681.3 921.5H342.7c-16.2 0-29.6-12.6-30.7-28.7L275 328c-0.4-5.7 4.2-10.6 9.9-10.6h454.2c5.7 0 10.3 4.8 9.9 10.6l-37 564.9c-1.1 16.1-14.5 28.6-30.7 28.6z" fill="#FF674B" p-id="3029"></path><path d="M650.7 92.2c-70.9 0-128.4 57.5-128.4 128.4v50.8c0 8.5 6.9 15.4 15.4 15.4h31.1c8.5 0 15.4-6.9 15.4-15.4v-39.2c0-43.4 35.2-78.6 78.6-78.6H763c8.5 0 15.4-6.9 15.4-15.4v-30.7c0-8.5-6.9-15.4-15.4-15.4H650.7z" fill="#F2AF55" p-id="3030"></path><path d="M745.8 337.9H278.3c-1 0-1.8-0.8-1.8-1.8v-37.4c0-46.2 37.5-83.7 83.7-83.7h303.7c46.2 0 83.7 37.5 83.7 83.7v37.4c-0.1 1-0.8 1.8-1.8 1.8z" fill="#D8D8D8" p-id="3031"></path><path d="M788.5 389.1H235.6c-11.3 0-20.5-9.2-20.5-20.5 0-56.5 45.8-92.2 102.4-92.2h389.1c56.5 0 102.4 35.6 102.4 92.2 0 11.3-9.2 20.5-20.5 20.5z" fill="#F2F2F2" p-id="3032"></path><path d="M722.6 730.7l13.1-198.3H288.4l13.1 198.2 9.1-15 9.1 15.1 9.2-15.1 9.2 15.1 9.1-15.1 9.2 15.1 9.1-15.1 9.2 15.1 9.1-15.1 9.2 15.1 9.2-15.1 9.1 15.1 9.2-15.1 9.1 15.1 9.2-15.1 9.1 15.1 9.2-15.1 9.1 15.1 9.2-15.1 9.2 15.1 9.1-15.1 9.2 15.1 9.1-15.1 9.2 15.1 9.1-15.1 9.2 15.1 9.2-15.1 9.1 15.1 9.2-15.1 9.1 15.1 9.2-15.1 9.1 15.1 9.2-15.1 9.2 15.1 9.1-15.1 9.2 15.1 9.1-15.1 9.2 15.1 9.1-15.1 9.2 15.1 9.2-15.1 9.1 15.1 9.2-15.1 9.1 15.1 9.2-15.1z" fill="#F2AF55" p-id="3033"></path></svg>