<?xml version="1.0" standalone="no"?><!DOCTYPE svg PUBLIC "-//W3C//DTD SVG 1.1//EN" "http://www.w3.org/Graphics/SVG/1.1/DTD/svg11.dtd"><svg t="1607573552925" class="icon" viewBox="0 0 1024 1024" version="1.1" xmlns="http://www.w3.org/2000/svg" p-id="3322" xmlns:xlink="http://www.w3.org/1999/xlink" width="32" height="32"><defs><style type="text/css"></style></defs><path d="M197.727133 106.078257l60.07169-34.84521c10.979871-6.442734 26.22465-5.535307 43.012057 4.174165l-60.071691 34.935953C224.042526 100.633693 208.707004 99.817008 197.727133 106.078257z" fill="#2789FF" p-id="3323"></path><path d="M197.727133 106.078257l60.07169-34.84521a24.046825 24.046825 0 0 1 4.900108-2.268569l-60.162433 34.935953a32.576642 32.576642 0 0 0-4.809365 2.177826" fill="#2789FF" p-id="3324"></path><path d="M202.536498 103.900431L262.698931 68.964478a21.959742 21.959742 0 0 1 4.174166-1.179655L206.801407 102.720776a22.867169 22.867169 0 0 0-4.264909 1.179655M206.801407 102.720776l60.07169-34.935953 3.538966-0.544457-60.162433 34.935953a21.052314 21.052314 0 0 0-3.448223 0.544457" fill="#2789FF" p-id="3325"></path><path d="M210.24963 102.176319l60.162433-34.935953h3.085253l-60.07169 34.84521h-3.175996" fill="#2789FF" p-id="3326"></path><path d="M213.425626 102.085576l60.07169-34.935952h2.813025l-60.07169 35.026695a14.60958 14.60958 0 0 0-2.813025 0M216.238651 102.176319l60.07169-34.935953a13.883638 13.883638 0 0 1 2.722282 0l-60.07169 35.208181h-2.722282M218.960933 102.448547l60.07169-34.935952h2.63154l-60.071691 35.298923h-2.631539M221.592472 102.811518l60.071691-34.84521 2.540796 0.544457L224.042526 103.355975l-2.450054-0.544457" fill="#2789FF" p-id="3327"></path><path d="M224.042526 103.355975l60.162433-34.84521 2.450054 0.635199-60.07169 34.935953-2.540797-0.725942M226.583323 104.081917l60.07169-34.935953 2.450054 0.816684-60.071691 34.935953-2.450053-0.816684" fill="#2789FF" p-id="3328"></path><path d="M229.033376 104.898601l60.071691-34.935953 2.450054 0.907428-60.071691 34.935953-2.450054-0.907428M231.48343 105.806029l60.071691-34.935953 2.359311 0.99817-60.071691 34.935953-2.359311-0.99817" fill="#2789FF" p-id="3329"></path><path d="M233.842741 106.804199l60.071691-34.935953 2.450054 1.179655-60.071691 34.935953-2.450054-1.179655" fill="#2789FF" p-id="3330"></path><path d="M236.292795 107.983854L296.636714 73.047901l2.540796 1.270399L238.833592 108.891282l-2.540797-1.270399" fill="#2789FF" p-id="3331"></path><path d="M238.833592 108.891282l60.07169-34.935953 1.905598 1.088913-60.071691 35.298923-1.905597-1.451883" fill="#2789FF" p-id="3332"></path><path d="M433.476758 242.010873l-60.071691 34.84521a29.672874 29.672874 0 0 1-30.126588-2.903767 93.011303 93.011303 0 0 1-42.195371-72.594188l60.07169-34.935953a92.829817 92.829817 0 0 0 42.195372 73.047902 29.945102 29.945102 0 0 0 30.126588 2.540796z" fill="#005CE2" p-id="3333"></path><path d="M301.083108 200.904414l60.07169-34.935952v1.905597l-60.07169 34.935953v-1.905598M301.083108 202.810012l60.07169-34.935953v1.99634l-59.980947 34.935953a14.700323 14.700323 0 0 1 0-1.99634M301.173851 204.806352l60.07169-34.935953v2.087083l-59.890205 34.935953a16.242949 16.242949 0 0 1 0-2.087083" fill="#005CE2" p-id="3334"></path><path d="M301.355336 206.893435l60.07169-34.482239v2.087083L301.536821 208.70829a18.148547 18.148547 0 0 1 0-2.087083" fill="#005CE2" p-id="3335"></path><path d="M301.536821 208.70829l60.162433-34.935953a16.424435 16.424435 0 0 0 0 2.087083l-60.07169 34.935952a20.23563 20.23563 0 0 1 0-2.087082M301.899792 211.067601l60.071691-34.935953a18.148547 18.148547 0 0 0 0 2.177825l-59.70872 34.935953a18.148547 18.148547 0 0 1 0-2.177825" fill="#005CE2" p-id="3336"></path><path d="M302.262763 213.245426l60.071691-34.935953a18.148547 18.148547 0 0 0 0.453713 2.177826l-60.07169 34.935953a18.148547 18.148547 0 0 1-0.453714-2.177826M302.716477 215.423252l60.07169-34.935953 0.544457 2.177826L303.170191 217.782563a18.148547 18.148547 0 0 1-0.453714-2.177826" fill="#005CE2" p-id="3337"></path><path d="M303.170191 217.782563l60.162433-34.935953 0.544456 2.268569-60.07169 34.935952c0-0.725942 0-1.451884-0.635199-2.268568" fill="#005CE2" p-id="3338"></path><path d="M303.80539 219.869646l60.07169-34.935953 0.635199 2.268568-60.07169 34.935953c0-0.816685 0-1.542626-0.635199-2.268568" fill="#005CE2" p-id="3339"></path><path d="M304.440589 222.138214l60.07169-34.935953c0 0.725942 0.453714 1.451884 0.725942 2.177826l-60.07169 34.935953a20.417115 20.417115 0 0 1-0.725942-2.177826M305.166531 224.31604l60.07169-34.935953c0 0.725942 0.453714 1.451884 0.725942 2.177826L305.710987 226.856836a14.065124 14.065124 0 0 1-0.725942-2.087082M305.710987 226.856836l60.071691-34.84521 0.816684 1.996341-60.07169 34.935952L305.710987 226.856836" fill="#005CE2" p-id="3340"></path><path d="M306.709157 228.490206l60.071691-34.935953 0.816684 2.087083-60.07169 34.935953a19.781916 19.781916 0 0 1-0.816685-2.087083M307.525842 230.577289l60.07169-34.935953 0.816685 1.99634-60.07169 34.935953-0.816685-1.99634" fill="#005CE2" p-id="3341"></path><path d="M308.342527 232.573629l60.07169-34.935953 0.816684 1.99634-60.162433 34.935953a20.780086 20.780086 0 0 0-0.907427-2.087083M309.249954 234.660712L369.230901 199.634016l1.088913 2.177826-59.980947 35.026695-1.088913-2.177825M310.338867 236.838537l60.162433-34.935953a22.141227 22.141227 0 0 0 1.270398 2.540797l-60.07169 34.935953-1.361141-2.540797" fill="#005CE2" p-id="3342"></path><path d="M311.700008 239.379334l60.07169-34.935953c0.635199 1.270398 1.361141 2.540797 2.087083 3.720452l-60.07169 34.935953c-0.725942-1.179656-1.451884-2.450054-2.087083-3.720452M313.787091 243.099786l60.07169-34.935953c0.99817 1.724112 2.087083 3.448224 3.175996 5.081593l-60.162433 34.84521c-1.088913-1.633369-2.087083-3.266738-3.085253-4.99085M316.872344 248.090636l60.162433-34.84521 2.631539 3.811195-60.07169 34.84521-2.722282-3.811195" fill="#005CE2" p-id="3343"></path><path d="M319.594626 251.901831l60.07169-34.84521 1.905597 2.450054L321.500223 254.079657l-1.905597-2.540797" fill="#005CE2" p-id="3344"></path><path d="M321.500223 254.079657l60.07169-34.935953 1.63337 1.99634-60.071691 34.935953-1.633369-1.99634M323.133592 256.438968l60.071691-34.935953 1.633369 1.905598-60.071691 34.935952-1.633369-1.905597" fill="#005CE2" p-id="3345"></path><path d="M324.766961 258.344565l60.071691-34.935952 1.633369 1.814854-60.07169 34.935953-1.63337-1.814855M326.400331 260.15942l60.07169-34.935953 1.724112 1.814855-60.07169 34.935953-1.724112-1.814855" fill="#005CE2" p-id="3346"></path><path d="M328.124443 261.974275L388.196133 226.856836l1.814855 1.814855-60.071691 34.84521a16.333692 16.333692 0 0 1-1.814854-1.724112M329.939297 263.698387l60.071691-34.84521 1.814854 1.724112-60.07169 34.935952c-0.635199-0.635199-1.270398-1.179656-1.814855-1.814854" fill="#005CE2" p-id="3347"></path><path d="M331.754152 265.513241l60.07169-34.935952 1.905598 1.633369-60.071691 34.935953-1.905597-1.63337" fill="#005CE2" p-id="3348"></path><path d="M333.659749 267.146611l60.071691-34.935953 1.905597 1.542626-60.07169 34.935953-1.905598-1.542626" fill="#005CE2" p-id="3349"></path><path d="M335.565347 268.689237l60.07169-34.935953a14.155867 14.155867 0 0 1 1.814855 1.451884l-60.07169 34.84521-1.814855-1.361141M337.380202 270.050378l60.07169-34.84521 1.905597 1.270398-60.07169 34.935953-1.905597-1.361141" fill="#005CE2" p-id="3350"></path><path d="M339.285799 271.411519l60.07169-34.935953 1.814855 1.179656L341.009911 272.228204l-1.724112-1.179656" fill="#005CE2" p-id="3351"></path><path d="M341.009911 272.228204l60.162433-34.935953 1.724112 1.088913-60.07169 34.935953-1.814855-1.088913M342.824766 273.680088l60.07169-34.935953h0.453714l1.361141 0.725942-60.071691 34.935952-1.361141-0.725941h-0.453713M344.63962 274.678258l60.071691-34.935953 1.724112 0.907427-60.071691 34.935953-1.724112-0.907427" fill="#005CE2" p-id="3352"></path><path d="M346.363732 275.585685l60.071691-34.935953 1.724112 0.816685-60.071691 34.935953-1.724112-0.816685" fill="#005CE2" p-id="3353"></path><path d="M348.087844 276.40237l60.071691-34.935953 1.724112 0.725942-60.071691 34.935952-1.724112-0.725941" fill="#005CE2" p-id="3354"></path><path d="M349.811956 277.128311l60.071691-34.935952 1.724112 0.635199L351.082355 277.763511l-1.63337-0.6352" fill="#005CE2" p-id="3355"></path><path d="M351.082355 277.763511l60.162433-34.935953 1.633369 0.544456-60.071691 34.935953-1.724111-0.544456M353.169437 278.307967l60.071691-34.935953 1.814854 0.544457-60.162433 34.84521h-1.724112" fill="#005CE2" p-id="3356"></path><path d="M354.893549 278.761681l60.162433-34.84521h1.724112l-60.07169 34.935952-1.814855-0.453713M356.708404 279.215394l60.07169-34.935952h1.814855l-60.07169 35.208181h-1.814855M358.523259 279.487623l60.07169-34.48224h1.905597L360.156628 279.669108h-1.905597" fill="#005CE2" p-id="3357"></path><path d="M360.156628 279.669108L420.500546 245.005383h1.996341l-60.071691 34.935953H360.156628" fill="#005CE2" p-id="3358"></path><path d="M362.425196 279.759851L422.496887 245.005383h2.177825l-60.07169 34.935953h-2.177826" fill="#005CE2" p-id="3359"></path><path d="M364.603022 279.669108L424.674712 245.005383h2.450054l-60.07169 34.935953h-2.450054" fill="#005CE2" p-id="3360"></path><path d="M367.053076 279.306137l60.07169-34.935953a18.148547 18.148547 0 0 0 2.99451-0.816684l-60.162433 34.935952a15.244779 15.244779 0 0 1-2.903767 0.816685" fill="#005CE2" p-id="3361"></path><path d="M369.956843 278.489452l60.162433-34.935952 3.357482-1.542627-60.071691 34.84521a20.144887 20.144887 0 0 1-3.448224 1.633369" fill="#005CE2" p-id="3362"></path><path d="M825.939085 984.55867l-60.071691 34.84521c10.889128-6.261249 17.604091-19.691173 17.604091-38.747147l60.162433-34.935953c-0.090743 19.055974-6.805705 32.485899-17.694833 38.83789z" fill="#005CE2" p-id="3363"></path><path d="M783.471485 980.656733l60.162433-34.935953-60.162433 34.935953M783.471485 980.838218l60.162433-34.935953v2.903768l-60.07169 34.935953v-2.903768" fill="#005CE2" p-id="3364"></path><path d="M783.471485 983.741986l60.07169-34.935953v2.903767l-60.07169 34.935953v-2.903767" fill="#005CE2" p-id="3365"></path><path d="M783.289999 986.645753l60.071691-34.935953v2.903768l-60.162433 34.935953v-2.903768" fill="#005CE2" p-id="3366"></path><path d="M782.927028 989.549521l60.162434-34.935953v2.903767l-60.071691 34.845211v-2.813025" fill="#005CE2" p-id="3367"></path><path d="M782.564058 992.362546l60.07169-34.845211a27.22282 27.22282 0 0 1-0.635199 2.903768l-60.071691 34.935953a29.037675 29.037675 0 0 0 0.6352-2.99451" fill="#005CE2" p-id="3368"></path><path d="M781.928858 995.357056l60.071691-34.935953a30.671044 30.671044 0 0 1-0.725942 3.085253L781.112174 998.170081a30.580302 30.580302 0 0 0 0.816684-3.085253" fill="#005CE2" p-id="3369"></path><path d="M781.112174 998.170081l59.980947-34.663725-1.088912 3.175996-60.071691 34.935953a32.485899 32.485899 0 0 0 0.99817-3.175996M780.114004 1001.618305l60.07169-34.935953c-0.453714 1.179656-0.907427 2.359311-1.451884 3.448224l-60.07169 34.935952c0-1.088913 0.99817-2.268568 1.451884-3.448223M778.66212 1005.066528l60.07169-34.935952a45.371367 45.371367 0 0 1-2.268568 4.174165l-60.162433 34.935953a37.83972 37.83972 0 0 0 2.359311-4.174166" fill="#005CE2" p-id="3370"></path><path d="M776.302809 1009.240694l60.162433-34.935953a31.487729 31.487729 0 0 1-10.526157 10.253929l-60.071691 34.84521a29.400646 29.400646 0 0 0 10.435415-10.163186" fill="#005CE2" p-id="3371"></path><path d="M301.173851 145.279118l60.162433-34.935953-0.181486 55.625297-60.07169 34.935952 0.090743-55.625296z" fill="#005CE2" p-id="3372"></path><path d="M240.739189 110.343165l60.071691-34.935953 60.525404 34.935953-60.162433 34.935953-60.434662-34.935953z" fill="#2789FF" p-id="3373"></path><path d="M711.693982 402.625513l-60.07169 34.935953a29.945102 29.945102 0 0 1-30.126588-2.99451 93.102046 93.102046 0 0 1-42.195372-72.594188L639.372022 326.673845a92.92056 92.92056 0 0 0 42.195372 72.594187 29.945102 29.945102 0 0 0 30.126588 3.357481z" fill="#005CE2" p-id="3374"></path><path d="M579.300332 361.519055L639.372022 326.673845v1.905597l-60.07169 34.935953v-1.905598" fill="#005CE2" p-id="3375"></path><path d="M579.300332 363.424652l60.07169-34.935953v1.99634l-60.07169 34.935953v-1.99634M579.391075 365.420992l60.07169-34.935953v2.087083l-59.890205 34.935953v-2.087083M579.57256 367.508075l60.071691-34.935953v2.087083l-59.890205 34.935953v-2.087083M579.754046 369.595158l60.162433-34.935953v2.087083L580.117017 372.045212a20.23563 20.23563 0 0 1 0-2.087083M580.117017 372.045212l60.07169-34.935953a18.148547 18.148547 0 0 0 0 2.177826l-60.07169 34.84521a14.246609 14.246609 0 0 1 0-2.087083" fill="#005CE2" p-id="3376"></path><path d="M580.479988 373.769324l60.07169-34.84521a18.148547 18.148547 0 0 0 0.453714 2.177825l-60.071691 34.935953a16.696663 16.696663 0 0 1 0-2.268568M580.933701 376.037892L641.459105 341.101939l0.544457 2.177826-60.162433 34.935953a18.148547 18.148547 0 0 1-0.453714-2.177826" fill="#005CE2" p-id="3377"></path><path d="M581.387415 378.215718L641.459105 343.279765l0.544457 2.268568-60.071691 34.935953-0.635199-2.268568M582.022614 380.484286l60.07169-34.935953c0 0.725942 0 1.451884 0.6352 2.268569l-60.071691 34.84521c0-0.725942-0.453714-1.451884-0.635199-2.177826M582.657813 382.662112l60.071691-34.84521c0 0.725942 0 1.451884 0.725941 2.177825l-60.07169 34.935953a21.868999 21.868999 0 0 1-0.725942-2.268568M583.383755 384.93068l60.07169-34.935953c0 0.725942 0.453714 1.451884 0.725942 2.087083l-60.07169 34.935953c0-0.725942-0.544456-1.451884-0.725942-2.087083M584.109697 387.017763l60.07169-34.935953 0.816685 2.087083-60.07169 34.935953-0.816685-2.087083" fill="#005CE2" p-id="3378"></path><path d="M584.926382 389.104846L644.998072 353.896665l0.816685 2.087083-60.071691 34.935953-0.816684-2.087083M585.743066 391.191929l60.071691-34.935953a19.418945 19.418945 0 0 0 0.907427 1.99634L587.013464 393.188269l-0.816684-1.99634M587.013464 393.188269l60.162434-34.935953a20.780086 20.780086 0 0 0 0.907427 2.087083l-60.07169 34.935953-0.998171-2.087083" fill="#005CE2" p-id="3379"></path><path d="M587.557921 395.275352l60.07169-34.935953 1.088913 2.177826-60.162433 34.935953a23.23014 23.23014 0 0 1-0.99817-2.177826" fill="#005CE2" p-id="3380"></path><path d="M588.556091 397.453178L648.718524 362.970938a22.141227 22.141227 0 0 0 1.270398 2.540797l-60.07169 34.935953-1.361141-2.540797" fill="#005CE2" p-id="3381"></path><path d="M589.917232 399.993974l60.07169-34.935953c0.635199 1.270398 1.361141 2.450054 1.99634 3.62971l-60.07169 34.935952c-0.725942-1.179656-1.361141-2.450054-1.99634-3.629709" fill="#005CE2" p-id="3382"></path><path d="M591.913572 403.623683l60.07169-34.935952 3.266739 5.172336-60.07169 34.935952q-1.724112-2.540797-3.266739-5.172336" fill="#005CE2" p-id="3383"></path><path d="M595.180311 408.796019l60.07169-34.935952c0.907427 1.270398 1.724112 2.540797 2.722282 3.811194l-60.162433 34.935953-2.631539-3.811195M597.81185 412.607214l60.162433-34.935953 1.814855 2.450054-60.071691 34.935953-1.905597-2.450054" fill="#005CE2" p-id="3384"></path><path d="M599.717447 415.057268l59.890205-34.935953 1.633369 1.99634-59.890204 35.298924-1.63337-1.99634M601.350817 417.416579l60.07169-34.935953 1.633369 1.905598-60.07169 34.935953-1.633369-1.905598" fill="#005CE2" p-id="3385"></path><path d="M602.984186 418.959206l60.07169-34.935953 1.633369 1.905597-60.07169 34.84521-1.633369-1.814854" fill="#005CE2" p-id="3386"></path><path d="M604.617555 420.77406l60.07169-34.84521 1.814855 1.814855-60.162433 34.84521-1.724112-1.814855M606.341667 422.588915l60.162433-34.84521 1.724112 1.724112-60.07169 34.935953-1.814855-1.814855" fill="#005CE2" p-id="3387"></path><path d="M608.156522 424.40377L668.681926 389.467817l1.905597 1.724112L610.062119 426.490853l-1.905597-1.724112" fill="#005CE2" p-id="3388"></path><path d="M610.062119 426.490853l60.07169-34.935953 1.905598 1.633369-60.162433 34.935953-1.814855-1.633369" fill="#005CE2" p-id="3389"></path><path d="M611.876974 427.761251l60.162433-34.935953 1.814855 1.542627L614.236285 429.303877l-1.905598-1.542626M614.236285 429.303877l60.07169-34.935952 1.905598 1.451883-60.071691 34.935953-1.905597-1.451884" fill="#005CE2" p-id="3390"></path><path d="M615.688169 430.755761l60.07169-34.935953 1.814855 1.270399-60.071691 34.935952-1.814854-1.270398M617.503023 432.026159L677.756199 397.090207l1.814855 1.179655-60.071691 34.935953a12.431755 12.431755 0 0 1-1.814854-1.179656" fill="#005CE2" p-id="3391"></path><path d="M619.317878 433.205815l60.07169-34.935953a7.440904 7.440904 0 0 0 1.814855 1.088913l-60.162433 34.935953-1.724112-1.088913" fill="#005CE2" p-id="3392"></path><path d="M621.04199 434.294728L681.204423 399.268032l1.361141 0.725942L623.310558 435.565126l-1.361141-0.725942M623.310558 435.565126l60.071691-34.935953 1.724112 0.907428-60.071691 34.935952L623.310558 435.565126" fill="#005CE2" p-id="3393"></path><path d="M624.580957 436.200325l60.07169-34.935953 1.724112 0.816685-60.07169 34.935953-1.724112-0.816685" fill="#005CE2" p-id="3394"></path><path d="M626.305069 437.01701L686.830473 402.081057l1.724112 0.725942-60.071691 34.935953-1.724112-0.725942" fill="#005CE2" p-id="3395"></path><path d="M628.029181 437.742952l60.07169-34.935953 1.724112 0.635199-60.162433 34.935953-1.633369-0.635199M629.66255 438.378151l60.162433-34.935953 1.633369 0.544456-60.07169 34.935953-1.724112-0.544456" fill="#005CE2" p-id="3396"></path><path d="M631.386662 438.922607l60.07169-34.935953 1.814855 0.544457-60.162433 34.935953-1.724112-0.544457" fill="#005CE2" p-id="3397"></path><path d="M633.110774 439.467064l60.162433-34.935953h1.724112l-60.071691 34.935953h-1.814854M634.925628 439.830035l60.071691-34.935953h1.814854l-60.07169 35.208181h-1.814855" fill="#005CE2" p-id="3398"></path><path d="M636.740483 440.102263l60.07169-34.935953h1.905598l-60.071691 34.935953h-1.905597M638.64608 440.283748l60.071691-34.935953h1.99634l-60.07169 34.935953h-1.996341M640.642421 440.374491l60.07169-34.935953h2.177826l-60.071691 34.935953h-2.177825" fill="#005CE2" p-id="3399"></path><path d="M642.820246 440.283748l60.071691-34.935953h2.450053l-60.07169 34.935953h-2.450054" fill="#005CE2" p-id="3400"></path><path d="M645.2703 439.920777L704.979019 404.984825l2.994511-0.816685-60.162433 34.935953a15.244779 15.244779 0 0 1-2.903768 0.816684M648.174068 439.104093l60.162433-34.935953a15.970721 15.970721 0 0 0 3.357481-1.542627l-60.07169 34.935953a19.872659 19.872659 0 0 1-3.448224 1.542627" fill="#005CE2" p-id="3401"></path><path d="M433.476758 217.238107l-60.071691 34.935952a29.491389 29.491389 0 0 0 12.341012-27.22282L445.817769 190.559743a29.400646 29.400646 0 0 1-12.341011 26.678364z" fill="#FF7517" p-id="3402"></path><path d="M385.746079 225.041982l60.07169-34.482239-60.07169 34.935952" fill="#FF7517" p-id="3403"></path><path d="M385.746079 225.132725L445.817769 190.559743v2.087083L385.746079 226.856836v-2.087082" fill="#FF7517" p-id="3404"></path><path d="M385.746079 226.856836l60.07169-34.935952v1.99634l-60.253175 35.298924v-1.996341M385.564594 229.216148l60.07169-34.935953a14.881808 14.881808 0 0 1 0 1.99634l-60.07169 34.935953a14.881808 14.881808 0 0 0 0-1.99634" fill="#FF7517" p-id="3405"></path><path d="M385.383108 231.212488l60.071691-34.935953v2.087083l-60.162434 34.935953a16.787406 16.787406 0 0 0 0-2.087083" fill="#FF7517" p-id="3406"></path><path d="M385.020137 233.299571l60.162433-34.935953c0 0.635199 0 1.361141-0.453713 2.087083l-60.071691 34.84521a15.426265 15.426265 0 0 0 0-1.99634M384.657166 235.295911l60.071691-34.84521-0.544457 2.087083-60.07169 34.935952 0.544456-2.177825" fill="#FF7517" p-id="3407"></path><path d="M384.11271 237.473736l60.07169-34.935952c0 0.816685-0.453714 1.542626-0.725942 2.268568l-60.07169 34.935953c0-0.725942 0.453714-1.451884 0.725942-2.268569" fill="#FF7517" p-id="3408"></path><path d="M383.386768 239.742305l60.07169-34.935953-0.99817 2.450054-60.162433 34.84521 1.088913-2.359311" fill="#FF7517" p-id="3409"></path><path d="M382.297855 242.101616l60.162433-34.84521-1.633369 2.813025L380.755229 245.005383a21.778256 21.778256 0 0 0 1.542626-2.903767" fill="#FF7517" p-id="3410"></path><path d="M380.755229 245.005383l60.07169-34.935952a21.324543 21.324543 0 0 1-7.350161 7.168676l-60.071691 34.935952a21.324543 21.324543 0 0 0 7.350162-7.168676" fill="#FF7517" p-id="3411"></path><path d="M386.10905 113.882132l60.07169-34.935953-0.362971 111.15985-60.07169 34.935953 0.362971-111.15985z" fill="#FF7517" p-id="3412"></path><path d="M313.696348 37.748978L373.768038 2.813025a30.126588 30.126588 0 0 1 30.217331 2.99451L343.822936 40.743488a29.945102 29.945102 0 0 0-30.126588-2.99451z" fill="#FFB845" p-id="3413"></path><path d="M313.696348 37.748978L373.768038 2.813025l3.448224-1.542627L317.144572 36.297094a23.502368 23.502368 0 0 0-3.448224 1.542626" fill="#FFB845" p-id="3414"></path><path d="M317.144572 36.297094L377.216262 1.270398a16.152207 16.152207 0 0 1 2.99451-0.816684L320.048339 35.389666a15.244779 15.244779 0 0 0-2.903767 0.816685" fill="#FFB845" p-id="3415"></path><path d="M320.048339 35.389666L380.210772 0.453714h2.450054l-60.162433 34.572982h-2.450054" fill="#FFB845" p-id="3416"></path><path d="M322.498393 35.026696L382.660826 0h2.177826L324.766961 34.935953h-2.268568" fill="#FFB845" p-id="3417"></path><path d="M324.766961 34.935953L384.838652 0h1.99634l-60.162433 35.026696h-1.905598M326.672559 35.026696L386.834992 0h1.814855l-60.071691 35.208181h-1.905597" fill="#FFB845" p-id="3418"></path><path d="M328.578156 35.208181L388.649847 0h1.905597l-60.07169 35.480409h-1.905598M330.483754 35.480409L390.555444 0.544456h1.724112L332.207866 36.297094h-1.724112" fill="#FFB845" p-id="3419"></path><path d="M332.207866 36.297094L392.279556 0.907427l1.724112 0.544457L333.931978 36.297094h-1.724112" fill="#FFB845" p-id="3420"></path><path d="M333.931978 36.297094L394.003668 1.451884l1.724112 0.544456-60.07169 34.935953-1.724112-0.635199" fill="#FFB845" p-id="3421"></path><path d="M335.65609 36.932293L395.72778 1.99634l1.724112 0.635199-60.07169 34.935953-1.724112-0.635199" fill="#FFB845" p-id="3422"></path><path d="M337.380202 37.567492L397.451892 2.631539l1.724112 0.725942-60.162433 34.935953-1.633369-0.725942" fill="#FFB845" p-id="3423"></path><path d="M339.013571 38.293434L399.176004 3.357481l1.724112 0.816685-60.162433 34.935953-1.724112-0.816685" fill="#FFB845" p-id="3424"></path><path d="M340.737683 39.110119L400.900116 4.174166l1.724112 0.907427-60.162433 34.935953-1.724112-0.907427" fill="#FFB845" p-id="3425"></path><path d="M342.461795 40.017546L402.624228 5.081593l1.361141 0.725942-60.162433 34.935953-1.361141-0.725942" fill="#FFB845" p-id="3426"></path><path d="M343.822936 40.743488a93.192788 93.192788 0 0 1 42.286114 73.138644V225.041982c0 27.22282-19.055974 37.658235-42.4676 24.137567a92.739075 92.739075 0 0 1-42.195371-72.594187V65.425512c0-27.404306 18.965232-38.202691 42.376857-24.682024z" fill="#FFDF5A" p-id="3427"></path><path d="M343.822936 40.743488L403.985369 5.807535a92.829817 92.829817 0 0 1 42.195371 73.138644l-60.07169 34.935953a93.192788 93.192788 0 0 0-42.286114-73.138644z" fill="#FFDF5A" p-id="3428"></path><path d="M343.822936 40.743488L403.985369 5.807535l-59.70872 35.208181h-0.453713M344.276649 41.015716L404.34834 6.079763l1.814854 1.088913-60.07169 34.935953-1.814855-1.088913" fill="#FFDF5A" p-id="3429"></path><path d="M346.091504 42.104629L406.163194 7.168676l1.814855 1.179656-60.07169 34.935952-1.814855-1.179655" fill="#FFDF5A" p-id="3430"></path><path d="M347.906359 43.284284L407.978049 8.348332l1.814855 1.270398-60.07169 34.935953-1.814855-1.270399M349.721214 44.554683l60.07169-34.935953 1.905597 1.451884-60.162433 34.935952-1.814854-1.451883" fill="#FFDF5A" p-id="3431"></path><path d="M351.536068 46.006566l60.162433-34.935952 1.814855 1.542626-60.07169 34.935953-1.905598-1.542627M353.441666 47.549193l60.07169-34.935953 1.905597 1.633369-60.07169 34.935953-1.905597-1.633369" fill="#FFDF5A" p-id="3432"></path><path d="M355.347263 49.182562l60.07169-34.935953 1.905598 1.724112-60.162433 34.935953-1.814855-1.724112M357.162118 50.906674l60.162433-34.935953 1.724112 1.814855-60.071691 34.935953-1.814854-1.814855" fill="#FFDF5A" p-id="3433"></path><path d="M358.976972 52.721529L419.048663 18.148547l1.814854 1.814855L360.701084 54.445641a16.333692 16.333692 0 0 0-1.724112-1.814855" fill="#FFDF5A" p-id="3434"></path><path d="M360.701084 54.445641l60.162433-34.935953 1.63337 1.814855-60.162433 35.026695-1.63337-1.905597M362.334454 56.351238l60.162433-34.935953 1.633369 1.905598-60.162433 34.935953a15.244779 15.244779 0 0 0-1.633369-1.905598M363.967823 58.256836l60.162433-34.935953 1.633369 1.99634-60.162433 34.935953a15.789236 15.789236 0 0 0-1.633369-1.99634" fill="#FFDF5A" p-id="3435"></path><path d="M365.601192 60.253176l60.162433-34.935953 1.814855 2.450054-60.071691 34.935953-1.905597-2.450054M367.506789 62.70323l60.071691-34.935953 2.722282 3.811195-60.07169 34.935952-2.722283-3.811194" fill="#FFDF5A" p-id="3436"></path><path d="M370.229072 66.514424l60.07169-34.935952c1.088913 1.633369 2.087083 3.357481 3.085253 5.081593l-60.07169 34.84521c-0.99817-1.633369-1.99634-3.357481-3.085253-4.990851" fill="#FFDF5A" p-id="3437"></path><path d="M373.314325 71.505275L433.386015 36.297094c0.725942 1.179656 1.451884 2.450054 2.087083 3.720452l-60.071691 35.208181-2.087082-3.720452M375.401407 75.225727l60.071691-34.84521 1.361141 2.450054-60.071691 34.935953-1.361141-2.540797M376.762548 77.766524l60.071691-34.935953 1.088913 2.268568-60.162433 34.935953a24.682024 24.682024 0 0 0-0.998171-2.268568" fill="#FFDF5A" p-id="3438"></path><path d="M377.760719 80.035092L437.923152 45.371367c0 0.635199 0.635199 1.361141 0.907427 2.087083L378.758889 81.668461l-0.99817-1.99634" fill="#FFDF5A" p-id="3439"></path><path d="M378.758889 81.668461l60.07169-34.482239 0.907427 1.99634-60.162433 34.935953-0.816684-2.450054" fill="#FFDF5A" p-id="3440"></path><path d="M379.575573 84.118515l60.162433-34.935953 0.816685 1.99634-60.162433 34.935953a18.148547 18.148547 0 0 0-0.816685-1.99634" fill="#FFDF5A" p-id="3441"></path><path d="M380.392258 86.114855l60.162433-34.935953c0 0.725942 0.453714 1.451884 0.725942 2.087083l-60.071691 34.935953-0.816684-2.087083M381.208942 88.201938l60.071691-34.935953 0.816684 2.177826L381.934884 90.742735a20.417115 20.417115 0 0 0-0.725942-2.177826" fill="#FFDF5A" p-id="3442"></path><path d="M381.934884 90.742735L441.825089 55.443811c0 0.725942 0 1.451884 0.635199 2.177825l-59.799462 34.935953a20.417115 20.417115 0 0 0-0.725942-1.814854" fill="#FFDF5A" p-id="3443"></path><path d="M382.660826 92.557589l60.07169-34.935953a21.143057 21.143057 0 0 1 0.6352 2.268569l-60.071691 34.935953a16.515178 16.515178 0 0 0-0.635199-2.268569M383.296025 94.826158l60.071691-34.935953a16.515178 16.515178 0 0 1 0.635199 2.268568l-60.071691 34.84521a19.691173 19.691173 0 0 0-0.635199-2.177825M383.931224 97.003983l60.071691-34.84521 0.544456 2.177826-60.162433 34.935953c0-0.725942 0-1.451884-0.453714-2.268569M384.384938 99.272552l60.162433-34.935953a18.148547 18.148547 0 0 0 0.453714 2.177825l-60.162433 34.935953a18.148547 18.148547 0 0 0 0-2.177825" fill="#FFDF5A" p-id="3444"></path><path d="M384.838652 101.450377l60.162433-34.935953a18.148547 18.148547 0 0 0 0 2.177826l-60.162433 34.935953a18.148547 18.148547 0 0 0 0-2.177826M385.201623 103.628203l60.162433-34.935953v2.177826l-59.799462 34.84521a20.23563 20.23563 0 0 0 0-2.087083" fill="#FFDF5A" p-id="3445"></path><path d="M385.564594 105.715286l60.07169-34.84521v1.99634l-60.162433 34.935953a18.148547 18.148547 0 0 0 0-2.087083" fill="#FFDF5A" p-id="3446"></path><path d="M385.746079 107.802369L445.908512 72.594188v2.087083l-60.07169 34.935952a16.242949 16.242949 0 0 0 0-2.087082M385.927565 109.889452l60.07169-34.935953a16.061464 16.061464 0 0 1 0 2.087083l-60.07169 34.935952a16.061464 16.061464 0 0 0 0-2.087082M386.018307 111.976534l60.071691-34.935952a13.429925 13.429925 0 0 1 0 1.905597l-60.071691 34.935953v-1.905598" fill="#FFDF5A" p-id="3447"></path><path d="M385.927565 194.189452l60.07169-34.935953 193.554253 111.704307-60.162433 34.935952L385.927565 194.189452z" fill="#2789FF" p-id="3448"></path><path d="M579.391075 305.893758l60.162433-34.935952-0.181486 55.625296-60.07169 34.935953 0.090743-55.625297zM784.923369 494.09419l60.07169-34.84521-1.361141 486.4718-60.07169 34.935953 1.361141-486.562543z" fill="#005CE2" p-id="3449"></path><path d="M711.96621 380.030573l-60.07169 34.935952a29.85436 29.85436 0 0 0 12.341012-27.22282l60.07169-34.935953a29.582131 29.582131 0 0 1-12.341012 27.222821z" fill="#FF7517" p-id="3450"></path><path d="M664.235532 387.834448l60.07169-34.935953-60.07169 34.935953M664.235532 387.92519l60.07169-34.935952a16.061464 16.061464 0 0 1 0 2.087082L664.144789 390.193759v-2.087083" fill="#FF7517" p-id="3451"></path><path d="M664.144789 390.193759l60.07169-34.935953a14.700323 14.700323 0 0 1 0 1.99634l-60.162433 34.754467v-1.99634" fill="#FF7517" p-id="3452"></path><path d="M664.054046 392.008613l60.07169-34.935952v1.99634l-60.162433 34.935953v-1.996341" fill="#FF7517" p-id="3453"></path><path d="M663.781818 394.004954l60.162433-34.935953a16.787406 16.787406 0 0 1 0 2.087083l-60.07169 34.935953v-2.087083" fill="#FF7517" p-id="3454"></path><path d="M663.50959 396.092037l60.07169-34.935953v2.087083l-60.07169 34.84521v-1.99634" fill="#FF7517" p-id="3455"></path><path d="M663.146619 398.088377L723.127566 362.970938l-0.544456 2.087083-60.162433 34.935953a15.244779 15.244779 0 0 0 0.635199-2.177826M662.51142 400.266202L723.127566 365.330249l-0.816684 2.268569-60.071691 34.935953a16.60592 16.60592 0 0 0 0.725942-2.268569" fill="#FF7517" p-id="3456"></path><path d="M661.785478 402.534771l60.07169-34.935953c0 0.816685-0.635199 1.633369-0.99817 2.450054l-60.07169 34.84521a18.148547 18.148547 0 0 0 0.99817-2.359311" fill="#FF7517" p-id="3457"></path><path d="M660.787308 404.894082l60.07169-34.84521a27.85802 27.85802 0 0 1-1.542626 2.813024L659.607652 407.797849a14.972551 14.972551 0 0 0 1.633369-2.903767M659.607652 407.797849l60.162433-34.935953a21.324543 21.324543 0 0 1-7.350161 7.168677l-60.071691 34.935952a21.052314 21.052314 0 0 0 7.259419-7.168676" fill="#FF7517" p-id="3458"></path><path d="M664.50776 276.674598l60.07169-34.935953-0.272228 111.15985-60.07169 34.935953 0.272228-111.15985z" fill="#FF7517" p-id="3459"></path><path d="M592.1858 200.632186l60.071691-34.935953a29.672874 29.672874 0 0 1 30.126588 2.903768l-60.071691 34.935953a29.672874 29.672874 0 0 0-30.126588-2.903768z" fill="#FFB845" p-id="3460"></path><path d="M592.1858 200.632186l60.071691-34.935953a23.956082 23.956082 0 0 1 3.448224-1.633369L596.087738 198.998817a20.144887 20.144887 0 0 0-3.448224 1.633369" fill="#FFB845" p-id="3461"></path><path d="M596.087738 198.998817l60.07169-34.935953a14.428095 14.428095 0 0 1 2.540797-0.725942l-60.162433 34.935953a15.244779 15.244779 0 0 0-2.903768 0.816685" fill="#FFB845" p-id="3462"></path><path d="M598.537792 198.182132L658.700225 163.336922h2.359311l-60.07169 34.482239h-2.450054" fill="#FFB845" p-id="3463"></path><path d="M600.987846 197.819161l60.07169-34.482239h2.268568l-60.162433 34.935953h-2.177825" fill="#FFB845" p-id="3464"></path><path d="M603.165671 197.728419l60.162433-34.935953h1.99634L605.162011 197.819161h-1.99634M605.162011 197.819161l60.162433-34.482239h1.814855l-60.07169 34.935953H605.162011" fill="#FFB845" p-id="3465"></path><path d="M607.067609 198.000647L667.139299 163.336922H668.681926l-60.071691 34.935953h-1.905597M608.973206 198.272875L668.681926 163.336922l1.724112 0.453714-60.071691 34.84521h-1.724112M610.697318 198.635846l60.071691-34.84521 1.724111 0.453714L612.42143 199.634016l-1.724112-0.544456M612.42143 199.634016l60.07169-34.935953 1.724112 0.544457L614.236285 199.634016h-1.814855" fill="#FFB845" p-id="3466"></path><path d="M614.236285 199.634016l60.07169-34.935953 1.724112 0.635199-60.07169 34.935953L614.236285 199.634016M615.869654 200.359958l60.07169-34.935953 1.63337 0.725942-60.071691 34.935953-1.633369-0.725942M617.503023 201.0859L677.756199 166.149947l1.724112 0.816685-60.07169 34.935952-1.724112-0.816684" fill="#FFB845" p-id="3467"></path><path d="M619.227135 201.902584l60.071691-34.935952 1.724112 0.907427-60.071691 34.935953-1.724112-0.907428M620.951247 202.810012l60.071691-34.935953 1.361141 0.725942-60.071691 34.935953-1.361141-0.725942" fill="#FFB845" p-id="3468"></path><path d="M622.312388 203.535954a92.829817 92.829817 0 0 1 42.195372 73.138644v111.15985c0 27.22282-19.146717 37.658235-42.558343 24.137567a92.92056 92.92056 0 0 1-42.195371-72.594188V228.217978c0.181485-27.404306 19.23746-38.202691 42.558342-24.682024z" fill="#FFDF5A" p-id="3469"></path><path d="M622.312388 203.535954l60.071691-34.935953a92.829817 92.829817 0 0 1 42.195371 73.138644l-60.07169 34.935953a92.829817 92.829817 0 0 0-42.195372-73.138644z" fill="#FFDF5A" p-id="3470"></path><path d="M622.312388 203.535954l60.071691-34.935953h0.453713l-60.07169 34.935953M622.766102 203.808182l60.07169-34.935953 1.814855 1.088913-60.162433 34.935953-1.724112-1.088913M624.490214 204.897095l60.162433-34.935953 1.724112 1.179655-60.07169 34.935953a12.431755 12.431755 0 0 0-1.814855-1.179655" fill="#FFDF5A" p-id="3471"></path><path d="M626.305069 206.07675L686.830473 171.140797l1.905597 1.270399-60.07169 34.935953-1.905598-1.270399" fill="#FFDF5A" p-id="3472"></path><path d="M628.210666 207.347149L688.282356 172.411196l1.814855 1.451883L630.025521 208.70829l-1.814855-1.451884" fill="#FFDF5A" p-id="3473"></path><path d="M630.025521 208.70829l60.07169-34.935953 1.905597 1.542626L632.384832 210.341659l-2.359311-1.633369M632.384832 210.341659l60.07169-34.935953 1.905598 1.633369-60.071691 34.935953-1.905597-1.633369" fill="#FFDF5A" p-id="3474"></path><path d="M633.836716 211.975028l60.07169-34.935953 1.814855 1.724112-60.071691 34.935953-1.814854-1.724112M635.65157 213.69914L695.904746 178.763187l1.814855 1.814855-60.071691 34.935953-1.814854-1.814855" fill="#FFDF5A" p-id="3475"></path><path d="M637.466425 215.513995l60.07169-34.935953 1.724112 1.814855-60.07169 35.389666-1.724112-1.814855M639.190537 217.782563l60.07169-34.935953 1.633369 1.814855-60.07169 34.935953-1.633369-1.814855" fill="#FFDF5A" p-id="3476"></path><path d="M640.823906 219.143704l60.07169-34.935953 1.63337 1.905598-60.071691 34.935952-1.633369-1.905597" fill="#FFDF5A" p-id="3477"></path><path d="M642.457275 221.049301l60.071691-34.935952 1.633369 1.99634-60.07169 34.935953-1.63337-1.996341" fill="#FFDF5A" p-id="3478"></path><path d="M644.090645 223.045642l60.07169-34.935953 1.905597 2.450054-60.07169 34.935952-1.905597-2.450053M645.996242 225.495695L706.067932 190.559743l2.63154 3.811195-60.071691 34.935952-2.631539-3.811195" fill="#FFDF5A" p-id="3479"></path><path d="M648.627781 229.30689l60.071691-34.935952a59.255006 59.255006 0 0 1 3.175995 5.081593l-60.07169 34.84521-3.175996-4.990851M651.803777 234.297741L711.875467 199.634016c0.725942 1.179656 1.451884 2.450054 2.087083 3.720452l-60.07169 34.84521c-0.725942-1.179656-1.361141-2.450054-2.087083-3.720452" fill="#FFDF5A" p-id="3480"></path><path d="M653.89086 238.018193L714.053293 203.172983c0 0.816685 0.907427 1.633369 1.270398 2.450054l-60.07169 34.935952c0-0.816685-0.816685-1.633369-1.270398-2.540796" fill="#FFDF5A" p-id="3481"></path><path d="M655.161258 240.558989l60.07169-34.935952c0 0.816685 0.725942 1.542626 1.088913 2.268568l-60.07169 34.935953-1.088913-2.268569M656.250171 242.827558l60.07169-34.935953c0 0.635199 0.635199 1.361141 0.99817 2.087083L657.157598 245.005383a19.418945 19.418945 0 0 0-0.907427-1.99634M657.157598 245.005383l60.162433-34.84521 0.816685 1.99634-60.07169 34.935953a20.780086 20.780086 0 0 0-0.907428-2.087083" fill="#FFDF5A" p-id="3482"></path><path d="M658.065026 246.910981l60.07169-34.935953 0.816685 2.087083-60.071691 34.84521-0.816684-1.99634" fill="#FFDF5A" p-id="3483"></path><path d="M658.88171 248.907321l60.071691-34.84521 0.816684 1.99634L659.607652 250.994404l-0.816684-2.087083" fill="#FFDF5A" p-id="3484"></path><path d="M659.607652 250.994404l60.07169-34.935953c0 0.725942 0 1.451884 0.725942 2.177826l-59.980947 34.935953-0.816685-2.177826M660.424337 253.17223l60.07169-34.935953c0 0.725942 0 1.451884 0.725942 2.177825l-60.07169 34.935953c0-0.725942-0.453714-1.451884-0.725942-2.177825M661.150279 255.350055l60.07169-34.935953 0.635199 2.268569-60.07169 34.935953c0-0.816685-0.453714-1.542626-0.635199-2.268569" fill="#FFDF5A" p-id="3485"></path><path d="M661.785478 257.618624l60.07169-34.935953c0 0.725942 0 1.451884 0.635199 2.268568l-60.162433 34.84521-0.544456-2.177825" fill="#FFDF5A" p-id="3486"></path><path d="M662.329934 259.796449l60.162433-34.84521A18.148547 18.148547 0 0 1 723.127566 226.856836l-60.07169 34.935953-0.544456-2.268568M662.874391 262.065018L723.127566 226.856836a18.148547 18.148547 0 0 1 0.453714 2.177826l-60.07169 34.935953v-2.177826M663.328104 264.242843L723.127566 229.30689a18.148547 18.148547 0 0 1 0 2.177826l-60.07169 34.935953v-2.177826M663.691075 266.420669l60.071691-34.935953a18.148547 18.148547 0 0 1 0 2.177826l-60.162434 34.84521v-2.087083M663.963303 268.507752l60.162433-34.84521v1.99634l-60.07169 34.935953v-2.087083M664.235532 270.594835L724.307222 235.93111a18.148547 18.148547 0 0 1 0 2.087083l-60.07169 34.935953v-2.087083" fill="#FFDF5A" p-id="3487"></path><path d="M664.417017 272.681917l60.07169-34.935952v2.087083l-60.07169 34.935952v-2.087083M664.50776 274.769l60.07169-34.935952v1.905597l-60.07169 34.935953v-1.905598" fill="#FFDF5A" p-id="3488"></path><path d="M664.144789 354.804092l60.07169-34.935953 60.525404 34.935953-60.162433 34.935953-60.434661-34.935953z" fill="#2789FF" p-id="3489"></path><path d="M724.57945 390.193759l60.162433-34.935953a132.847363 132.847363 0 0 1 60.253176 104.444887l-60.07169 34.845211A132.575135 132.575135 0 0 0 724.57945 390.193759z" fill="#76C8FF" p-id="3490"></path><path d="M724.57945 390.193759l60.162433-34.935953h0.544457L725.214649 390.193759h-0.635199" fill="#76C8FF" p-id="3491"></path><path d="M725.214649 390.193759l60.071691-34.935953a23.683854 23.683854 0 0 1 2.540796 1.542626l-60.07169 34.935953-2.540797-1.542626" fill="#76C8FF" p-id="3492"></path><path d="M727.755446 391.645643l60.07169-34.935953 2.631539 1.724112-60.07169 34.935952-2.631539-1.724111M730.386985 393.369754l60.07169-34.935952 2.63154 1.814854-60.071691 34.935953-2.631539-1.814855" fill="#76C8FF" p-id="3493"></path><path d="M733.018524 395.184609l60.071691-34.935953 2.631539 2.087083-60.07169 34.935953-2.63154-2.087083" fill="#76C8FF" p-id="3494"></path><path d="M735.650064 397.271692L795.721754 362.335739l2.722282 2.177826L738.372346 399.268032l-2.722282-2.177825" fill="#76C8FF" p-id="3495"></path><path d="M738.372346 399.268032l60.07169-34.935953 2.631539 2.359312L741.276113 401.808829l-2.903767-2.540797M741.276113 401.808829l60.071691-34.935953 2.722282 2.450054-60.162433 34.935953-2.63154-2.450054" fill="#76C8FF" p-id="3496"></path><path d="M743.635424 404.258883l60.162433-34.935953 2.540797 2.540796-60.07169 34.935953-2.63154-2.540796M746.266964 406.799679L806.338654 372.045212l2.450054 2.631539-60.07169 34.84521-2.450054-2.540796" fill="#76C8FF" p-id="3497"></path><path d="M748.717018 409.340476l60.07169-34.84521 2.359311 2.540796-60.07169 34.935953-2.359311-2.631539" fill="#76C8FF" p-id="3498"></path><path d="M751.076329 411.972015l60.07169-34.935953 2.359311 2.722282-60.07169 34.935953-2.359311-2.722282" fill="#76C8FF" p-id="3499"></path><path d="M753.43564 414.694297L813.870301 379.758344l2.268568 2.903768L755.704208 417.416579l-2.268568-2.903767" fill="#76C8FF" p-id="3500"></path><path d="M755.704208 417.416579l60.07169-34.935953 2.722282 3.538967-60.07169 34.935953-2.722282-3.538967M758.42649 421.137031l60.07169-34.935953c1.270398 1.724112 2.631539 3.629709 3.811195 5.444565L762.237685 426.490853l-3.811195-5.444564" fill="#76C8FF" p-id="3501"></path><path d="M762.237685 426.490853l60.07169-34.935953c1.542626 2.359311 3.085253 4.718622 4.537137 7.168676l-60.162433 34.935953c-1.361141-2.359311-2.903768-4.809365-4.446394-7.077934" fill="#76C8FF" p-id="3502"></path><path d="M766.684079 433.659529L826.846512 399.268032c0.99817 1.724112 1.99634 3.448224 2.903768 5.263079l-60.071691 34.935953c-0.907427-1.814855-1.905597-3.538967-2.99451-5.353822" fill="#76C8FF" p-id="3503"></path><path d="M769.678589 439.01335l60.071691-34.935953 1.905597 3.62971-60.07169 34.935952-1.905598-3.629709M771.584187 442.643059L832.018848 407.707107l1.542626 3.175995-60.07169 34.935953c-0.544456-1.088913-0.99817-2.177826-1.542626-3.175996" fill="#76C8FF" p-id="3504"></path><path d="M773.126813 445.819055l60.07169-34.935953 1.361141 2.903768-60.162433 34.935953c0-0.99817-0.816685-1.905597-1.270398-2.903768" fill="#76C8FF" p-id="3505"></path><path d="M774.397211 448.722823l60.162433-34.935953c0 0.99817 0.816685 1.99634 1.179656 2.903767l-60.07169 34.935953c0-0.99817-0.816685-1.905597-1.270399-2.903767M775.66761 451.62659l60.07169-34.935953c0 0.99817 0.816685 1.99634 1.179656 2.994511l-60.071691 34.84521c0-0.907427-0.725942-1.905597-1.179655-2.903768" fill="#76C8FF" p-id="3506"></path><path d="M776.847265 454.530358l60.071691-34.84521c0 0.907427 0.816685 1.905597 1.179655 2.903767L777.573207 457.524868l-1.088913-2.99451" fill="#76C8FF" p-id="3507"></path><path d="M777.573207 457.524868l60.162433-34.935953c0 0.99817 0.725942 2.087083 0.99817 3.085253l-60.07169 34.935953-1.088913-3.085253M779.025091 460.610121l60.07169-34.935953c0 0.99817 0.725942 2.087083 0.99817 3.085253l-60.07169 34.935953c0-0.99817-0.635199-2.087083-0.99817-3.085253M780.023261 463.695374l60.07169-34.935953c0 1.088913 0.635199 2.177826 0.99817 3.266738l-60.162433 34.935953c0-1.088913-0.544456-2.177826-0.907427-3.266738M780.930688 466.962112L841.093121 432.026159l0.816685 3.175996-60.07169 34.935953a32.395156 32.395156 0 0 0-0.907428-3.175996M781.838116 470.138108L841.909806 435.565126c0 1.088913 0.544456 2.087083 0.725942 3.175996l-60.07169 34.935953c0-1.088913 0-2.087083-0.725942-3.175996" fill="#76C8FF" p-id="3508"></path><path d="M782.564058 473.314104l60.07169-34.935953c0 1.088913 0 2.087083 0.635199 3.175996l-60.07169 34.935952c0-1.088913-0.453714-2.177826-0.635199-3.175995M783.199257 476.490099l60.07169-34.935952 0.544456 2.99451-60.07169 34.935953-0.544456-2.994511M783.743713 479.48461L843.815403 444.6394v3.085253l-60.07169 34.935952v-3.085253M784.197427 482.569863l60.07169-34.935953v2.99451l-60.07169 34.935953v-2.99451M784.469655 485.564373l60.07169-34.935953v2.903768l-60.07169 34.935952v-2.903767M784.741883 488.46814L844.813573 453.713673v2.903768l-59.980947 34.754467v-2.903768" fill="#76C8FF" p-id="3509"></path><path d="M784.832626 491.371908l60.07169-34.935953v2.813025l-60.07169 34.84521v-2.722282" fill="#76C8FF" p-id="3510"></path><path d="M724.57945 390.193759a132.575135 132.575135 0 0 1 60.343919 104.354145l-1.451884 486.562542c0 38.384177-27.22282 53.901184-60.616147 34.572982L238.924335 735.832835A132.847363 132.847363 0 0 1 178.671159 631.47869L180.0323 145.188375c0-38.384177 27.22282-53.901184 60.706889-34.572982L301.173851 145.188375v55.625297a93.011303 93.011303 0 0 0 42.195371 73.047901c23.411626 13.520667 42.376857 2.631539 42.4676-24.137567v-55.625297l193.554253 111.795049v55.625297a93.102046 93.102046 0 0 0 42.195371 72.594187c23.411626 13.520667 42.376857 2.722282 42.4676-24.137567v-55.625296z" fill="#76C8FF" p-id="3511"></path><path d="M395.546294 401.808829a112.611734 112.611734 0 0 1 56.71421 94.372444c0 21.506028-7.894618 28.493219-22.141228 37.476749L387.379448 560.7901l64.427342 37.113778v42.376857L337.65243 574.40151v-42.4676l64.608827-43.102799a16.696663 16.696663 0 0 0 9.074273-16.515177A31.8507 31.8507 0 0 0 395.455552 444.6394c-7.531647-4.355651-16.515178-5.535307-16.515178 10.253929l-40.924973-23.593111c0.090743-40.562002 26.678364-47.367707 57.530893-29.491389zM533.11228 480.936493c32.939613 18.965232 57.07718 58.166093 56.986437 93.465017 0 22.322713-9.61873 27.767277-18.60226 29.128418a93.555759 93.555759 0 0 1 20.326372 56.169753c0 42.739828-28.039505 46.641766-59.255005 28.674704a115.515501 115.515501 0 0 1-58.892035-98.002154l40.834231 23.593111a36.84155 36.84155 0 0 0 18.148546 31.941443c10.707643 6.261249 18.148547 3.448224 18.148547-11.252099A40.199031 40.199031 0 0 0 532.567824 602.531758l-6.261249-3.62971v-40.380517l5.807535 3.357482c12.159526 6.987191 16.968891 0 16.968891-9.074274a33.937783 33.937783 0 0 0-16.152206-28.856189c-8.439074-4.809365-16.152207-2.450054-16.24295 9.890958l-40.83423-23.593111C476.0351 471.86222 501.533808 462.787946 533.11228 480.936493z" fill="#2622DD" p-id="3512"></path><path d="M380.210772 679.118626l-0.090742 27.767277-54.536384-31.487729 0.090743-27.767277 54.536383 31.487729zM603.891613 808.245537l-0.090743 27.767277-198.000647-114.335846 0.090743-27.767277 198.000647 114.335846z" fill="#FFDF5A" p-id="3513"></path></svg>