<?xml version="1.0" standalone="no"?><!DOCTYPE svg PUBLIC "-//W3C//DTD SVG 1.1//EN" "http://www.w3.org/Graphics/SVG/1.1/DTD/svg11.dtd"><svg t="1607582297095" class="icon" viewBox="0 0 1059 1024" version="1.1" xmlns="http://www.w3.org/2000/svg" p-id="8609" width="33.09375" height="32" xmlns:xlink="http://www.w3.org/1999/xlink"><defs><style type="text/css"></style></defs><path d="M513.201186 0C230.437547 0 1.201186 229.224728 1.201186 512 1.201186 794.775272 230.437547 1024 513.201186 1024 795.964826 1024 1025.201186 794.775272 1025.201186 512 1025.201186 229.224728 795.964826 0 513.201186 0L513.201186 0ZM513.201186 930.909092C281.846989 930.909092 94.29207 743.35418 94.29207 512 94.29207 280.64582 281.846989 93.090908 513.201186 93.090908 744.555349 93.090908 932.110268 280.64582 932.110268 512 932.110268 743.35418 744.555349 930.909092 513.201186 930.909092ZM462.001186 768C462.001186 739.723022 484.727057 716.8 513.201186 716.8 541.478161 716.8 564.401186 739.525878 564.401186 768 564.401186 796.276978 541.675281 819.2 513.201186 819.2 484.924177 819.2 462.001186 796.474122 462.001186 768ZM462.001186 255.847943C462.001186 227.654943 484.727057 204.8 513.201186 204.8 541.478161 204.8 564.401186 227.99546 564.401186 255.847943L564.401186 563.352057C564.401186 591.545057 541.675281 614.4 513.201186 614.4 484.924177 614.4 462.001186 591.20454 462.001186 563.352057L462.001186 255.847943Z" p-id="8610" fill="#FFA500"></path></svg>