<?xml version="1.0" standalone="no"?><!DOCTYPE svg PUBLIC "-//W3C//DTD SVG 1.1//EN" "http://www.w3.org/Graphics/SVG/1.1/DTD/svg11.dtd"><svg t="1607582316431" class="icon" viewBox="0 0 1024 1024" version="1.1" xmlns="http://www.w3.org/2000/svg" p-id="9075" width="32" height="32" xmlns:xlink="http://www.w3.org/1999/xlink"><defs><style type="text/css"></style></defs><path d="M512 1024C229.300613 1024 0 794.699387 0 512S229.300613 0 512 0s512 229.300613 512 512-229.300613 512-512 512z m0-961.177914C263.852761 62.822086 62.822086 263.852761 62.822086 512s201.030675 449.177914 449.177914 449.177914 449.177914-201.030675 449.177914-449.177914S760.147239 62.822086 512 62.822086z m31.411043 769.570552h-62.822086v-160.196319H288.981595v-62.822086h191.607362v-97.374233H288.981595v-62.822086h157.055215L288.981595 226.159509l53.398773-34.552147 160.196319 226.159509h34.552147l144.490798-213.595092 53.398773 34.552147-141.349693 210.453988h144.490797v62.822086h-194.748466v97.374233h194.748466v62.822086h-194.748466v160.196319z" p-id="9076" fill="#FFA500"></path></svg>